<svg width="25" height="26" viewBox="0 0 25 26" fill="none" xmlns="http://www.w3.org/2000/svg">
<path fill-rule="evenodd" clip-rule="evenodd" d="M7.9511 1.88106C8.31785 1.10828 9.10897 0.571259 10.0232 0.571259H15.2624C16.1767 0.571259 16.9665 1.10828 17.3345 1.88106C18.2291 1.88892 18.9272 1.92952 19.5507 2.17315C20.295 2.46428 20.9423 2.95904 21.4185 3.60083C21.8992 4.24787 22.1258 5.07698 22.4349 6.21782L23.4068 9.7831L23.7735 10.8846L23.8049 10.9239C24.9851 12.4355 24.4232 14.6831 23.2994 19.177C22.5842 22.0363 22.2279 23.4653 21.1618 24.2983C20.0956 25.1301 18.6221 25.1301 15.675 25.1301H9.61062C6.66357 25.1301 5.19004 25.1301 4.12386 24.2983C3.05768 23.4653 2.70011 22.0363 1.98626 19.177C0.862455 14.6831 0.300549 12.4355 1.48068 10.9239L1.51212 10.8846L1.87886 9.7831L2.85073 6.21782C3.16116 5.07698 3.38775 4.24656 3.86714 3.59952C4.34355 2.95822 4.99081 2.46392 5.73492 2.17315C6.35838 1.92952 7.0552 1.88761 7.9511 1.88106ZM7.95372 3.84969C7.08663 3.85886 6.73823 3.89161 6.45007 4.00425C6.04923 4.16101 5.70062 4.42746 5.44414 4.77311C5.21362 5.08353 5.0774 5.51707 4.69755 6.91463L3.95097 9.65081C5.28697 9.41243 7.11283 9.41243 9.60931 9.41243H15.675C18.1728 9.41243 19.9974 9.41243 21.3333 9.64819L20.5881 6.91201C20.2082 5.51445 20.072 5.08091 19.8415 4.77049C19.585 4.42484 19.2364 4.15839 18.8356 4.00163C18.5474 3.88899 18.199 3.85624 17.3319 3.84707C17.1459 4.23851 16.8528 4.5692 16.4865 4.80079C16.1202 5.03239 15.6958 5.1554 15.2624 5.15557H10.0232C9.58999 5.15552 9.16564 5.0327 8.79937 4.80135C8.4331 4.56999 8.13989 4.24088 7.95372 3.84969Z" fill="white"/>
</svg>
