<svg width="120" height="54" viewBox="0 0 120 54" fill="none" xmlns="http://www.w3.org/2000/svg">
<path fill-rule="evenodd" clip-rule="evenodd" d="M62.1044 44.8028C59.5839 44.8028 57.2562 44.3804 55.1212 43.5356C53.0159 42.6584 51.1775 41.4237 49.6059 39.8316C48.064 38.2396 46.8631 36.3551 46.0031 34.1781C45.4469 32.7698 45.0705 31.2664 44.8741 29.6677H55.6032C55.6691 29.9424 55.7456 30.2112 55.8329 30.4741C56.1887 31.5138 56.6928 32.4074 57.3452 33.1547C57.9975 33.902 58.7685 34.4868 59.658 34.9092C60.5773 35.2991 61.6003 35.494 62.7271 35.494C63.9132 35.494 65.0696 35.2828 66.1964 34.8605C66.3142 34.8129 66.4328 34.762 66.5522 34.7077V29.6677H75.6703V40.4652C73.7725 41.8623 71.6079 42.9346 69.1764 43.6819C66.7449 44.4292 64.3876 44.8028 62.1044 44.8028ZM80.1428 29.6677V44.023H97.6673C101.967 44.023 105.229 43.1945 107.453 41.5374C109.706 39.8804 110.833 37.5735 110.833 34.6168C110.833 32.691 110.371 31.0413 109.447 29.6677H80.1428ZM108.202 23.1813C108.978 21.8852 109.365 20.4335 109.365 18.826C109.365 16.2267 108.342 14.0985 106.296 12.4414C104.25 10.7519 101.077 9.90708 96.7778 9.90708H80.1428V23.1813H108.202ZM55.9134 23.1813C56.2633 22.2375 56.7406 21.4193 57.3452 20.7267C57.9975 19.9794 58.7833 19.4108 59.7025 19.0209C60.6514 18.631 61.7041 18.4361 62.8605 18.4361C64.2542 18.4361 65.5144 18.761 66.6412 19.4108C67.7976 20.0281 68.8651 20.9541 69.8436 22.1888L76.5599 15.7068C74.9883 13.5949 72.9868 11.9703 70.5553 10.8331C68.1534 9.69589 65.4106 9.12729 62.3268 9.12729C59.747 9.12729 57.3748 9.56592 55.2102 10.4432C53.0752 11.288 51.222 12.5064 49.6504 14.0985C48.0788 15.6905 46.8631 17.575 46.0031 19.752C45.574 20.8384 45.2519 21.9815 45.0369 23.1813H55.9134ZM41.8144 23.1813C41.4672 21.2138 40.8297 19.4371 39.9019 17.8512C38.4193 15.3169 36.3585 13.3674 33.7194 12.0028C31.0804 10.6056 28.0262 9.90708 24.5569 9.90708H9.21179V23.1813H19.7087V18.8747H24.1121C25.5947 18.8747 26.8846 19.1834 27.9817 19.8007C29.1085 20.418 29.9832 21.3278 30.6059 22.53C30.7143 22.7392 30.8133 22.9563 30.9028 23.1813H41.8144ZM19.7087 29.6677V35.0554H24.1121C25.5947 35.0554 26.8846 34.7467 27.9817 34.1294C29.1085 33.5121 29.9832 32.6023 30.6059 31.4001C30.8731 30.8705 31.0829 30.293 31.2354 29.6677H41.965C41.6736 32.0653 40.9859 34.2023 39.9019 36.0789C38.4193 38.6132 36.3585 40.5789 33.7194 41.9761C31.0804 43.3407 28.0262 44.023 24.5569 44.023H9.21179V29.6677H19.7087ZM96.7778 35.9814H90.4618V30.6203H96.7778C97.9342 30.6203 98.7941 30.8478 99.3575 31.3026C99.9506 31.7575 100.247 32.4236 100.247 33.3009C100.247 34.1781 99.9506 34.8442 99.3575 35.2991C98.7941 35.754 97.9342 35.9814 96.7778 35.9814ZM90.4618 23.0173V17.9487H95.3545C96.5406 17.9487 97.4005 18.1599 97.9342 18.5823C98.4976 19.0047 98.7793 19.6382 98.7793 20.483C98.7793 21.2953 98.4976 21.9289 97.9342 22.3838C97.4005 22.8062 96.5406 23.0173 95.3545 23.0173H90.4618Z" fill="white"/>
</svg>
