<svg width="1130" height="373" viewBox="0 0 1130 373" fill="none" xmlns="http://www.w3.org/2000/svg">
<path d="M3.21179 364.995V8.61555H95.2643C118.127 8.61555 138.182 16.0826 155.429 31.0166C172.677 45.9506 186.114 66.6546 195.74 93.1285C205.366 119.602 210.18 150.828 210.18 186.805C210.18 222.443 205.366 253.669 195.74 280.482C186.114 306.956 172.677 327.66 155.429 342.594C138.182 357.528 118.127 364.995 95.2643 364.995H3.21179ZM42.3191 308.993H93.4594C109.303 308.993 122.94 303.902 134.372 293.719C146.004 283.537 154.928 269.282 161.145 250.954C167.563 232.626 170.771 211.243 170.771 186.805C170.771 162.029 167.563 140.646 161.145 122.657C154.928 104.329 146.004 90.0738 134.372 79.8915C122.94 69.7092 109.303 64.6181 93.4594 64.6181H42.3191V308.993Z" fill="#CAD1FF" fill-opacity="0.2"/>
<path d="M251.745 364.995V8.61555H338.383C357.034 8.61555 372.978 13.7067 386.214 23.889C399.651 34.0713 409.979 48.6659 417.199 67.6728C424.419 86.6797 428.029 109.25 428.029 135.385C428.029 161.519 424.419 184.09 417.199 203.097C409.979 221.765 399.651 236.19 386.214 246.372C372.978 256.215 357.034 261.136 338.383 261.136H273.405L290.852 231.098V364.995H251.745ZM389.523 364.995L336.277 235.68H378.092L431.639 364.995H389.523ZM290.852 238.226L273.405 206.661H336.578C353.825 206.661 366.761 200.382 375.384 187.824C384.209 175.266 388.621 157.786 388.621 135.385C388.621 112.645 384.209 95.165 375.384 82.9462C366.761 70.7275 353.825 64.6181 336.578 64.6181H273.405L290.852 32.0348V238.226Z" fill="#CAD1FF" fill-opacity="0.2"/>
<path d="M570.453 370.087C554.008 370.087 538.866 365.505 525.029 356.34C511.191 347.176 499.158 334.449 488.929 318.157C478.701 301.526 470.78 282.18 465.164 260.118C459.549 237.717 456.741 213.279 456.741 186.805C456.741 160.332 459.549 136.064 465.164 114.002C470.78 91.6012 478.701 72.2548 488.929 55.9632C499.158 39.3321 511.191 26.4346 525.029 17.2705C538.866 8.10644 553.908 3.52441 570.152 3.52441C586.597 3.52441 601.639 8.10644 615.276 17.2705C629.114 26.4346 641.147 39.3321 651.375 55.9632C661.603 72.2548 669.525 91.6012 675.14 114.002C680.756 136.064 683.563 160.332 683.563 186.805C683.563 213.279 680.756 237.717 675.14 260.118C669.525 282.519 661.603 301.865 651.375 318.157C641.147 334.449 629.114 347.176 615.276 356.34C601.639 365.505 586.698 370.087 570.453 370.087ZM570.152 312.048C580.781 312.048 590.608 308.993 599.633 302.883C608.658 296.774 616.479 288.119 623.097 276.919C629.716 265.379 634.83 252.142 638.44 237.208C642.25 221.934 644.155 205.134 644.155 186.805C644.155 168.477 642.25 151.846 638.44 136.912C634.83 121.639 629.716 108.402 623.097 97.2014C616.479 85.6615 608.658 76.8369 599.633 70.7275C590.608 64.6181 580.781 61.5634 570.152 61.5634C559.523 61.5634 549.696 64.6181 540.671 70.7275C531.847 76.8369 524.026 85.6615 517.207 97.2014C510.589 108.402 505.375 121.639 501.564 136.912C497.954 151.846 496.149 168.477 496.149 186.805C496.149 204.794 497.954 221.425 501.564 236.699C505.375 251.972 510.589 265.379 517.207 276.919C523.825 288.119 531.647 296.774 540.671 302.883C549.696 308.993 559.523 312.048 570.152 312.048Z" fill="#CAD1FF" fill-opacity="0.2"/>
<path d="M725.016 364.995V8.61555H757.204L889.267 283.028H873.323V8.61555H912.129V364.995H879.941L747.879 90.5829H763.823V364.995H725.016Z" fill="#CAD1FF" fill-opacity="0.2"/>
<path d="M1004.65 156.768H1109.34V211.243H1004.65V156.768ZM1007.66 309.502H1126.49V364.995H968.555V8.61555H1122.28V64.109H1007.66V309.502Z" fill="#CAD1FF" fill-opacity="0.2"/>
<path d="M1.85079 364.995V366.356H3.21179H95.2643C118.454 366.356 138.825 358.772 156.32 343.623C173.78 328.506 187.332 307.589 197.019 280.948L197.021 280.942C206.712 253.95 211.541 222.562 211.541 186.805C211.541 150.711 206.712 119.321 197.019 92.6634C187.332 66.0221 173.78 45.1052 156.32 29.9877C138.825 14.839 118.454 7.25455 95.2643 7.25455H3.21179H1.85079V8.61555V364.995ZM133.475 292.695L133.466 292.703C122.294 302.655 108.982 307.632 93.4594 307.632H43.6801V65.9791H93.4594C108.982 65.9791 122.294 70.9559 133.466 80.9079L133.475 80.9156C144.887 90.9051 153.697 104.937 159.856 123.094L159.86 123.104L159.863 123.114C166.215 140.92 169.41 162.141 169.41 186.805C169.41 211.128 166.216 232.352 159.86 250.504L159.856 250.517C153.697 268.674 144.887 282.706 133.475 292.695ZM250.384 364.995V366.356H251.745H290.852H292.213V364.995V262.497H338.383C340.882 262.497 343.334 262.41 345.739 262.235L388.265 365.514L388.612 366.356H389.523H431.639H433.675L432.896 364.475L385.036 248.894C385.706 248.429 386.369 247.952 387.026 247.464L387.036 247.457C400.709 237.095 411.175 222.447 418.468 203.588L418.471 203.58C425.764 184.382 429.39 161.64 429.39 135.385C429.39 109.13 425.764 86.3879 418.471 67.1895C411.18 47.995 400.717 33.1726 387.04 22.8071C373.539 12.4226 357.295 7.25455 338.383 7.25455H251.745H250.384V8.61555V364.995ZM336.578 205.3H292.213V65.9791H336.578C353.461 65.9791 365.946 71.9329 374.272 83.731L374.277 83.737L374.281 83.743C382.872 95.6389 387.26 112.793 387.26 135.385C387.26 157.629 382.875 174.795 374.271 187.041L374.267 187.047L374.262 187.053C365.929 199.188 353.446 205.3 336.578 205.3ZM487.77 318.87L487.777 318.881C498.092 335.31 510.254 348.189 524.277 357.475C538.336 366.785 553.738 371.448 570.453 371.448C586.97 371.448 602.173 366.784 616.031 357.473C630.052 348.187 642.214 335.309 652.528 318.881C662.845 302.446 670.817 282.962 676.46 260.449C682.107 237.925 684.924 213.375 684.924 186.805C684.924 160.236 682.107 135.854 676.459 113.666C670.817 91.1584 662.847 71.6779 652.532 55.2459C642.22 38.4793 630.058 25.4282 616.031 16.1383C602.17 6.82497 586.866 2.16342 570.152 2.16342C553.634 2.16342 538.333 6.82754 524.277 16.1358C510.249 25.4255 498.087 38.4765 487.774 55.2434C477.458 71.677 469.487 91.1601 463.844 113.671C458.197 135.857 455.38 160.238 455.38 186.805C455.38 213.375 458.198 237.925 463.844 260.449L463.845 260.454C469.489 282.627 477.459 302.104 487.77 318.87ZM637.119 236.878L637.117 236.888C633.534 251.712 628.465 264.822 621.922 276.232C615.388 287.29 607.698 295.781 598.87 301.756C590.065 307.717 580.502 310.687 570.152 310.687C559.802 310.687 550.24 307.717 541.434 301.756C532.607 295.781 524.917 287.289 518.382 276.232C511.84 264.823 506.671 251.542 502.886 236.376C499.305 221.221 497.51 204.7 497.51 186.805C497.51 168.567 499.306 152.047 502.886 137.236C506.671 122.067 511.84 108.959 518.379 97.8938C525.12 86.4843 532.816 77.8229 541.441 71.8498C550.245 65.8919 559.805 62.9244 570.152 62.9244C580.502 62.9244 590.065 65.8935 598.87 71.8545C607.69 77.8249 615.379 86.4794 621.917 97.8785L621.921 97.8862L621.926 97.8938C628.462 108.955 633.53 122.059 637.115 137.225L637.118 137.237L637.121 137.249C640.899 152.054 642.794 168.57 642.794 186.805C642.794 205.04 640.899 221.729 637.119 236.878ZM723.655 364.995V366.356H725.016H763.823H765.184V364.995V129.679L878.715 365.586L879.086 366.356H879.941H912.129H913.49V364.995V8.61555V7.25455H912.129H873.323H871.962V8.61555V243.932L758.431 8.02535L758.06 7.25455H757.204H725.016H723.655V8.61555V364.995ZM1009.02 308.141V212.604H1109.34H1110.7V211.243V156.768V155.407H1109.34H1009.02V65.47H1122.28H1123.64V64.109V8.61555V7.25455H1122.28H968.555H967.194V8.61555V364.995V366.356H968.555H1126.49H1127.85V364.995V309.502V308.141H1126.49H1009.02Z" stroke="#D4DAFD" stroke-opacity="0.2" stroke-width="2.722"/>
</svg>
