<svg width="24" height="248" viewBox="0 0 24 248" fill="none" xmlns="http://www.w3.org/2000/svg">
<path d="M7.64127 4.33555C7.64127 3.59154 7.74561 2.87928 7.9543 2.19878C8.17206 1.51828 8.4488 0.978419 8.78451 0.579193L10.1591 1.19164C9.8597 1.57272 9.61018 2.04453 9.41057 2.60708C9.21095 3.16963 9.11115 3.74578 9.11115 4.33555C9.11115 4.83458 9.16559 5.23834 9.27447 5.54684C9.38335 5.85533 9.52852 6.08216 9.70999 6.22733C9.90053 6.37251 10.1137 6.44509 10.3497 6.44509C10.64 6.44509 10.8714 6.34075 11.0438 6.13206C11.2252 5.92338 11.3659 5.65118 11.4657 5.31547C11.5746 4.98883 11.6744 4.62136 11.7651 4.21306C11.8558 3.81383 11.9602 3.41007 12.0781 3.00177C12.2051 2.60254 12.3639 2.23507 12.5545 1.89936C12.7541 1.57272 13.0172 1.30506 13.3439 1.09637C13.6705 0.887686 14.0879 0.783343 14.596 0.783343C15.1131 0.783343 15.585 0.919443 16.0114 1.19164C16.4469 1.47292 16.7917 1.89482 17.0458 2.45737C17.3089 3.02899 17.4405 3.75032 17.4405 4.62136C17.4405 5.19298 17.3679 5.76006 17.2227 6.3226C17.0775 6.88515 16.8688 7.37511 16.5966 7.79248L15.222 7.23447C15.4761 6.80803 15.6621 6.36797 15.78 5.91431C15.9071 5.46064 15.9706 5.02512 15.9706 4.60775C15.9706 4.11779 15.9116 3.71856 15.7936 3.41007C15.6757 3.11065 15.5214 2.88835 15.3309 2.74318C15.1404 2.60708 14.9226 2.53903 14.6776 2.53903C14.3873 2.53903 14.1514 2.63884 13.9699 2.83845C13.7975 3.04714 13.6614 3.3148 13.5616 3.64144C13.4618 3.97715 13.362 4.34916 13.2622 4.75746C13.1715 5.16576 13.0671 5.56952 12.9492 5.96875C12.8312 6.37704 12.677 6.74451 12.4864 7.07115C12.2959 7.40687 12.0373 7.67453 11.7107 7.87414C11.384 8.08283 10.9712 8.18717 10.4721 8.18717C9.96404 8.18717 9.49223 8.04654 9.05671 7.76526C8.63026 7.49306 8.28548 7.07115 8.02235 6.49953C7.7683 5.92791 7.64127 5.20659 7.64127 4.33555ZM7.77737 11.0304L17.3044 11.0304L17.3044 12.7997L9.27447 12.7997L9.27447 17.7809L7.77737 17.7809L7.77737 11.0304ZM7.77737 20.2666L17.3044 20.2666L17.3044 22.0359L7.77737 22.0359L7.77737 20.2666ZM7.77737 25.7015L17.3044 25.7015L17.3044 29.8662C17.3044 30.9005 17.1047 31.8079 16.7055 32.5882C16.3063 33.3685 15.7528 33.9764 15.0451 34.4119C14.3374 34.8474 13.5026 35.0652 12.5409 35.0652C11.5882 35.0652 10.7534 34.8474 10.0366 34.4119C9.32891 33.9764 8.77543 33.3685 8.37621 32.5882C7.97698 31.8079 7.77737 30.9005 7.77737 29.8662L7.77737 25.7015ZM9.27447 27.4708L9.27447 29.7845C9.27447 30.5013 9.41057 31.1183 9.68277 31.6355C9.95496 32.1617 10.336 32.5655 10.826 32.8468C11.316 33.1371 11.8876 33.2823 12.5409 33.2823C13.2032 33.2823 13.7748 33.1371 14.2557 32.8468C14.7457 32.5655 15.1268 32.1617 15.399 31.6355C15.6712 31.1183 15.8073 30.5013 15.8073 29.7845L15.8073 27.4708L9.27447 27.4708ZM13.3438 39.6677L13.3438 44.404L11.8876 44.404L11.8876 39.6677L13.3438 39.6677ZM9.26086 39.8038L9.26086 45.1797L7.77737 45.1797L7.77737 38.0345L17.3044 38.0345L17.3044 44.9892L15.8209 44.9892L15.8209 39.8038L9.26086 39.8038Z" fill="#FFFBFB"/>
<path d="M6.75258 154.969L14.2452 154.797L14.1774 151.851L15.5743 151.818L15.7478 159.362L14.3509 159.394L14.2831 156.448L6.79056 156.62L6.75258 154.969ZM6.86808 159.991L15.8496 163.786L15.887 165.412L7.08979 169.629L7.05006 167.902L14.9842 164.276L14.9993 164.937L6.90722 161.692L6.86808 159.991ZM8.96772 161.785L10.2733 162.199L10.3837 167L9.09858 167.474L8.96772 161.785ZM7.13624 171.649L16.0257 171.444L16.1099 175.102C16.128 175.889 16.0165 176.565 15.7753 177.13C15.5344 177.703 15.1804 178.147 14.7133 178.463C14.2462 178.778 13.6867 178.944 13.0348 178.959C12.3829 178.974 11.8164 178.834 11.3353 178.541C10.8542 178.247 10.4801 177.819 10.213 177.258C9.94621 176.705 9.80373 176.035 9.78562 175.247L9.72253 172.504L10.5141 173.223L7.17421 173.3L7.13624 171.649ZM10.3363 173.227L11.1194 172.472L11.1808 175.139C11.1975 175.867 11.3625 176.41 11.6756 176.767C11.9975 177.132 12.4378 177.308 12.9965 177.295C13.5638 177.282 13.9955 177.086 14.2917 176.706C14.5881 176.335 14.7279 175.786 14.7112 175.058L14.6499 172.391L15.4795 173.109L10.3363 173.227ZM7.51129 187.954L15.0039 187.782L14.9361 184.836L16.333 184.803L16.5065 192.347L15.1096 192.379L15.0418 189.433L7.54926 189.605L7.51129 187.954ZM7.63194 198.723C7.61597 198.029 7.71556 197.387 7.93071 196.798C8.14586 196.209 8.45166 195.693 8.84811 195.252C9.25302 194.811 9.7279 194.465 10.2728 194.216C10.8261 193.966 11.4329 193.833 12.0933 193.818C12.7536 193.803 13.3617 193.907 13.9174 194.132C14.4817 194.356 14.9719 194.679 15.3882 195.102C15.813 195.524 16.1464 196.024 16.3884 196.603C16.6305 197.182 16.7594 197.815 16.7751 198.5C16.7911 199.195 16.6914 199.832 16.4761 200.413C16.2609 201.003 15.9509 201.518 15.546 201.959C15.1495 202.4 14.6747 202.746 14.1213 202.996C13.5765 203.246 12.9739 203.378 12.3135 203.393C11.6532 203.408 11.0409 203.304 10.4766 203.08C9.91242 202.855 9.42215 202.532 9.00584 202.11C8.58954 201.687 8.26037 201.187 8.01834 200.608C7.77652 200.037 7.64771 199.409 7.63194 198.723ZM9.07937 198.677C9.08969 199.126 9.17543 199.539 9.33658 199.917C9.49774 200.294 9.72122 200.619 10.007 200.892C10.3013 201.165 10.6365 201.373 11.0125 201.517C11.3971 201.669 11.8181 201.74 12.2753 201.73C12.7324 201.719 13.1454 201.629 13.5142 201.46C13.8917 201.299 14.2169 201.075 14.4899 200.789C14.7713 200.503 14.9838 200.168 15.1275 199.783C15.2711 199.399 15.3377 198.982 15.3274 198.534C15.3171 198.085 15.2314 197.672 15.0702 197.294C14.9092 196.925 14.6815 196.6 14.3871 196.319C14.1012 196.046 13.766 195.834 13.3813 195.681C13.0053 195.538 12.5887 195.471 12.1315 195.482C11.6828 195.492 11.2697 195.578 10.8923 195.739C10.515 195.908 10.1856 196.136 9.90421 196.422C9.63125 196.708 9.42296 197.043 9.27933 197.428C9.1357 197.812 9.06905 198.229 9.07937 198.677ZM8.03064 210.533L16.9201 210.328L17.0043 213.986C17.0224 214.773 16.9109 215.449 16.6697 216.014C16.4288 216.587 16.0748 217.031 15.6077 217.347C15.1406 217.663 14.5811 217.828 13.9292 217.843C13.2773 217.858 12.7108 217.719 12.2297 217.425C11.7486 217.131 11.3745 216.703 11.1074 216.142C10.8406 215.589 10.6981 214.919 10.68 214.131L10.6169 211.388L11.4085 212.107L8.06861 212.184L8.03064 210.533ZM11.2307 212.111L12.0138 211.356L12.0752 214.023C12.0919 214.751 12.2569 215.294 12.57 215.651C12.8919 216.016 13.3322 216.192 13.8909 216.179C14.4582 216.166 14.8899 215.97 15.1861 215.59C15.4825 215.219 15.6223 214.67 15.6056 213.942L15.5443 211.275L16.3739 211.993L11.2307 212.111ZM8.26018 220.512L17.1497 220.308L17.1877 221.959L9.69508 222.131L9.80199 226.779L8.40506 226.811L8.26018 220.512ZM8.42686 227.759L17.4084 231.554L17.4458 233.18L8.64856 237.397L8.60884 235.67L16.5429 232.044L16.5581 232.705L8.466 229.46L8.42686 227.759ZM10.5265 229.553L11.832 229.967L11.9425 234.768L10.6574 235.242L10.5265 229.553ZM8.73299 241.068L12.2507 240.987L11.2432 241.379L17.5422 237.371L17.5828 239.136L12.5108 242.353L12.488 241.363L17.7031 244.368L17.7405 245.994L11.264 242.28L12.2887 242.638L8.77097 242.719L8.73299 241.068Z" fill="#FFFBFB"/>
<path fill-rule="evenodd" clip-rule="evenodd" d="M12.6116 79.948C13.684 79.948 14.7459 79.7368 15.7366 79.3264C16.7274 78.916 17.6276 78.3145 18.3858 77.5563C19.1441 76.798 19.7456 75.8978 20.156 74.907C20.5664 73.9163 20.7776 72.8544 20.7776 71.782C20.7776 70.7097 20.5664 69.6478 20.156 68.6571C19.7456 67.6663 19.1441 66.7661 18.3858 66.0078C17.6276 65.2495 16.7274 64.648 15.7366 64.2376C14.7459 63.8273 13.684 63.6161 12.6116 63.6161C10.4459 63.6161 8.36882 64.4764 6.8374 66.0078C5.30598 67.5392 4.44564 69.6163 4.44564 71.782C4.44564 73.9478 5.30598 76.0248 6.8374 77.5563C8.36882 79.0877 10.4459 79.948 12.6116 79.948ZM11.5074 68.1436L16.6284 70.989C16.7698 71.0676 16.8876 71.1826 16.9696 71.322C17.0516 71.4615 17.0948 71.6203 17.0948 71.782C17.0948 71.9438 17.0516 72.1026 16.9696 72.242C16.8876 72.3815 16.7698 72.4964 16.6284 72.575L11.5074 75.4204C11.3416 75.5126 11.1546 75.5598 10.9649 75.5575C10.7752 75.5551 10.5894 75.5032 10.4259 75.407C10.2625 75.3107 10.127 75.1734 10.0329 75.0087C9.93884 74.8439 9.88945 74.6575 9.88963 74.4677V69.0963C9.88945 68.9066 9.93884 68.7202 10.0329 68.5554C10.127 68.3907 10.2625 68.2534 10.4259 68.1571C10.5894 68.0608 10.7752 68.009 10.9649 68.0066C11.1546 68.0042 11.3416 68.0515 11.5074 68.1436Z" fill="white"/>
<circle cx="12.6118" cy="71.782" r="9.60411" stroke="white" stroke-opacity="0.09" stroke-width="2.56775"/>
<line x1="12.1582" y1="87.2068" x2="12.1582" y2="145.276" stroke="#FFFBFB" stroke-width="0.907332"/>
</svg>
